<svg version="1" xmlns="http://www.w3.org/2000/svg" width="4001.333" height="4001.333" viewBox="0 0 3001.000000 3001.000000"><path d="M678 .7c-89.5 4.9-170.5 24.1-252.5 59.8-6 2.7-20.9 9.9-33 16C174.3 187.2 27 401.6 3.5 643c-.8 8.5-1.9 24-2.5 34.5-1.4 26.3-1.4 1618.7 0 1645 .6 10.4 1.7 26 2.5 34.5 31.7 324.8 284.8 589.6 608.1 635.9 11.5 1.7 28.6 3.8 37.9 4.8 16 1.6 66.7 1.7 838.5 2.1 589.5.2 826.9 0 840.5-.8 96.7-5.6 187.1-29.5 274-72.5 187.6-92.9 326.5-265.1 376.9-467 10.1-40.7 16.2-79.9 19.8-127 1.9-25.1 1.9-1639.9 0-1665-7.5-99.8-30.2-184-72.2-269-85.5-172.8-237.6-304.7-419.6-363.8C2456.1 18 2410.1 8.6 2349 2.3 2333.6.7 2277.8.6 1508 .5c-453.5-.1-827 0-830 .2zm1650 129.6c82.2 10 144.5 28.3 211.5 62.2 87.5 44.2 164.6 110.6 221.5 190.6 66.7 93.9 104.7 202.9 111 318.4 1.3 24.8 1.3 1573.7 0 1597.5-6.1 108.4-39.5 209.8-98.4 299.5-84 127.6-212.6 219.2-359.6 256-40.7 10.2-77.6 15.5-122.1 17.5-30.6 1.3-1551.9 1.3-1582.9 0-35.2-1.6-63-4.8-94.5-11.1-192-38.5-356-170.4-435.4-350.3-25.8-58.3-41-116.2-48.8-185.6-1.6-14.6-1.8-63.1-2.1-813.5-.2-584.9 0-802.8.8-816C142.5 479.8 270 288 464.5 190.7c71-35.5 150.1-56.8 230-62 2.8-.2 368.1-.3 812-.3 764.2.1 807.8.2 821.5 1.9z"/><path d="M883.5 708.2c-.3.7-.4 357-.3 791.8l.3 790.5 313 .3c317.3.3 338.7.1 380-3.4 148.9-12.6 281.1-58.6 397-138.1 53-36.4 107.8-87.9 149.6-140.8 85.8-108.3 141-243 159.3-388.7 18.1-143 3.4-292.3-40.8-414.6-59.9-165.8-164.8-295.4-309.1-381.9-73.9-44.3-156.8-77-241.2-95.2-44.4-9.5-81.1-14.6-140.8-19.3-22.9-1.8-666.3-2.4-667-.6zM1524.6 943c125 7.3 227.7 49 307.8 125 69.4 65.9 120.1 165 142 277.5 5.2 26.9 8.8 53.3 11.7 86 1.7 19.6 2.3 92.8 1 116.2-4 69.6-14.1 125.2-33.1 182.3-20.5 61.7-47.4 112.7-83.5 158-70.3 88.4-170.9 144.2-291.9 162-38.1 5.6-30.1 5.4-220.8 5.7l-176.8.4V942h162.9c100 0 169.8.4 180.7 1z"/></svg>